PathFileType	4	(X/Y/Z)	Walk6.trc
DataRate	CameraRate	NumFrames	NumMarkers	Units	OrigDataRate	OrigDataStartFrame	OrigNumFrames
200.000000	200.000000	5	58	mm	200.000000	555	597
Frame#	Times		LBHD		LACR1		RMT5		LElbowM		RTH2		RTB3		LWRU		RToe		RTB2		RMT1		C7		LCAR		RCAL		RCAR		LASI		RFA1		RLFC		RWRU		LLFC		LTH3		LTH4		RElbow		RElbowM		LPSI		LTH2		RPSI		LTB2		RASI		LCAL		LMMAL		LFHD		T10		LMT5		LToe		RBHD		LUA1		LMT1		RTH3		RLMAL		RBack		RMFC		LTB1		LTB3		LTH1		LMFC		RFHD		RTB1		LTB4		RUA1		RTH1		RTH4		RTB4		LLMAL		RWRR		LWRR		RACR1		LElbow		RMMAL
			X1	Y1	Z1	X2	Y2	Z2	X3	Y3	Z3	X4	Y4	Z4	X5	Y5	Z5	X6	Y6	Z6	X7	Y7	Z7	X8	Y8	Z8	X9	Y9	Z9	X10	Y10	Z10	X11	Y11	Z11	X12	Y12	Z12	X13	Y13	Z13	X14	Y14	Z14	X15	Y15	Z15	X16	Y16	Z16	X17	Y17	Z17	X18	Y18	Z18	X19	Y19	Z19	X20	Y20	Z20	X21	Y21	Z21	X22	Y22	Z22	X23	Y23	Z23	X24	Y24	Z24	X25	Y25	Z25	X26	Y26	Z26	X27	Y27	Z27	X28	Y28	Z28	X29	Y29	Z29	X30	Y30	Z30	X31	Y31	Z31	X32	Y32	Z32	X33	Y33	Z33	X34	Y34	Z34	X35	Y35	Z35	X36	Y36	Z36	X37	Y37	Z37	X38	Y38	Z38	X39	Y39	Z39	X40	Y40	Z40	X41	Y41	Z41	X42	Y42	Z42	X43	Y43	Z43	X44	Y44	Z44	X45	Y45	Z45	X46	Y46	Z46	X47	Y47	Z47	X48	Y48	Z48	X49	Y49	Z49	X50	Y50	Z50	X51	Y51	Z51	X52	Y52	Z52	X53	Y53	Z53	X54	Y54	Z54	X55	Y55	Z55	X56	Y56	Z56	X57	Y57	Z57	X58	Y58	Z58

555	2.775	723.59	1622.6	-46	762.1	1422.5	-145.11	762.14	65.225	172.1	714.21	1084.9	-270.02	865.42	707.01	142.65	765.09	243.82	88.4	805.36	818.48	-262.38	847.18	64.667	141.81	798.98	327.89	160.33	801.09	59.4	100.85	671.75	1486.4	20.099	876.98	811.7	-241.31	604.56	112.4	83	735.5	788.05	288.99	771.87	1039.9	-134.88	655.62	931.16	292.39	853.48	548.72	162.79	669.64	811.95	259.91	730.81	515.01	-97.701	740.37	578.32	-106.99	738.58	671.01	-130.43	633.95	1091.8	293.4	602.5	1099.8	213.95	574.91	1043.7	-27.156	797.36	678.9	-85.828	567.95	1043.7	41.795	740.61	295.35	-77.738	752.71	995.49	173.41	586.4	35.228	-21.182	670.53	68.96	21.618	903.04	1626	-10.924	587.35	1229.7	15.013	771.55	24.485	-80.589	856.64	36.009	-14.358	720.22	1619	90.784	746.51	1220.6	-226.15	803.8	29.362	3.8901	840.8	591.81	164.75	664.25	139.25	143.88	640.97	1375.9	171.33	839.45	515.56	36.544	756.74	387.68	-6.8728	715.48	206.66	-6.6479	736.73	762.02	-151.14	704.4	496.58	27.172	901.36	1625.6	63.914	863.09	418.32	79.686	735.72	297.44	-6.3052	721.51	1247.1	259.52	776.46	770.31	196.83	808.31	680.22	182.46	810.09	319.59	86.702	655.73	60.059	-63.922	748.86	836.6	243.27	858.02	851.74	-205.34	772.77	1425.6	179	664.72	1071.5	-201.43	694.87	131.6	67.291
556	2.78	728.19	1622.6	-46.09	766.62	1422.6	-145.15	780.01	63.231	172.09	720.81	1084.8	-270.24	870.84	707.86	142.49	778.61	242.09	88.372	814.89	819.36	-262	865.33	64.481	141.96	810.16	326.97	160.37	819.32	58.443	100.96	676.31	1486.4	20.039	886.63	813.5	-241.05	621.51	106.69	82.69	739.16	788.09	288.7	776.2	1040	-134.86	659.45	931.33	292.2	859.76	549.54	162.9	673.33	812.13	259.67	732.65	514.78	-97.743	742.72	578.16	-106.99	741.5	670.83	-130.43	637.99	1091.9	293.31	606.63	1100	213.9	579.52	1043.7	-27.01	800.22	678.42	-85.66	572.69	1043.7	41.951	741.53	295.03	-77.757	757.54	995.58	173.33	586.44	35.245	-21.112	670.6	68.935	21.674	907.64	1626	-10.97	591.98	1229.7	15.025	771.56	24.479	-80.609	856.67	35.943	-14.37	724.79	1619.1	90.672	752.13	1220.7	-226.31	803.78	29.351	3.9312	846.82	592.63	164.92	680.34	134.9	143.7	645.46	1375.9	171.19	845.81	516.05	36.742	758.13	387.27	-6.9155	716.08	206.46	-6.6534	740.24	761.82	-150.97	706.02	496.46	27.157	905.93	1625.6	63.869	872.42	419.22	79.671	736.68	297.1	-6.2838	725.73	1247.2	259.48	780.4	769.8	196.26	813.99	680.85	182.57	821.69	319.07	86.607	655.75	60.073	-63.874	752.61	836.67	242.99	867.29	853.38	-205.18	777.28	1425.6	178.95	671.5	1071	-201.75	711.4	128.03	67.226
557	2.785	732.81	1622.6	-46.171	771.13	1422.7	-145.19	797.99	61.312	172.07	727.41	1084.6	-270.45	876.15	708.57	142.33	792.15	240.37	88.369	824.38	820.24	-261.6	883.54	64.361	142.15	821.29	326.02	160.42	837.63	57.553	101.08	680.89	1486.4	19.997	896.22	815.29	-240.76	638.68	101.04	82.346	742.88	788.1	288.43	780.44	1040	-134.8	663.33	931.47	292.04	865.86	550.25	163.05	677.07	812.27	259.45	734.47	514.55	-97.785	745.08	577.99	-107	744.43	670.63	-130.41	642.06	1092.1	293.25	610.77	1100.2	213.88	584.13	1043.7	-26.845	803.06	677.92	-85.469	577.44	1043.6	42.127	742.44	294.71	-77.78	762.35	995.6	173.27	586.48	35.266	-21.042	670.69	68.905	21.729	912.27	1626	-11.007	596.62	1229.7	15.053	771.57	24.47	-80.63	856.69	35.879	-14.384	729.38	1619.1	90.566	757.71	1220.8	-226.47	803.76	29.341	3.9697	852.7	593.36	165.15	696.58	130.6	143.51	649.98	1375.9	171.06	851.95	516.41	36.973	759.5	386.86	-6.961	716.69	206.25	-6.6581	743.75	761.6	-150.79	707.63	496.33	27.155	910.53	1625.6	63.832	881.59	419.9	79.767	737.63	296.76	-6.2648	729.98	1247.3	259.47	784.39	769.33	195.73	819.57	681.39	182.7	833.26	318.54	86.536	655.78	60.089	-63.824	756.39	836.72	242.72	876.51	855	-204.98	781.83	1425.5	178.91	678.26	1070.6	-202.03	728.09	124.51	67.153
558	2.79	737.45	1622.6	-46.24	775.65	1422.8	-145.23	816.04	59.49	172.07	734	1084.5	-270.65	881.37	709.15	142.15	805.71	238.68	88.395	833.82	821.11	-261.16	901.78	64.325	142.36	832.36	325.05	160.5	856	56.746	101.22	685.5	1486.4	19.97	905.75	817.07	-240.42	656.07	95.473	81.972	746.65	788.09	288.18	784.63	1040	-134.7	667.25	931.56	291.9	871.77	550.85	163.22	680.85	812.38	259.24	736.29	514.31	-97.827	747.44	577.82	-107.01	747.38	670.42	-130.37	646.15	1092.2	293.21	614.94	1100.4	213.89	588.74	1043.7	-26.658	805.9	677.43	-85.261	582.19	1043.5	42.326	743.36	294.4	-77.807	767.16	995.55	173.23	586.52	35.291	-20.974	670.79	68.87	21.785	916.91	1626	-11.033	601.27	1229.7	15.098	771.58	24.457	-80.649	856.71	35.816	-14.4	733.99	1619.1	90.47	763.26	1220.8	-226.65	803.74	29.329	4.0061	858.42	593.99	165.42	712.96	126.37	143.33	654.52	1375.9	170.95	857.9	516.64	37.233	760.86	386.45	-7.009	717.29	206.04	-6.6612	747.27	761.38	-150.61	709.24	496.19	27.161	915.14	1625.6	63.806	890.58	420.37	79.978	738.59	296.42	-6.2492	734.24	1247.3	259.48	788.48	768.92	195.27	825.07	681.84	182.84	844.79	318.01	86.499	655.8	60.105	-63.77	760.22	836.74	242.48	885.67	856.62	-204.75	786.4	1425.4	178.88	685	1070.1	-202.29	744.94	121.09	67.074
559	2.795	742.1	1622.6	-46.296	780.19	1422.8	-145.25	834.16	57.786	172.07	740.59	1084.3	-270.85	886.48	709.59	141.97	819.29	237.03	88.451	843.22	821.96	-260.7	920.06	64.395	142.6	843.36	324.07	160.6	874.43	56.044	101.38	690.14	1486.4	19.957	915.21	818.85	-240.05	673.66	90.021	81.573	750.47	788.05	287.95	788.77	1039.9	-134.56	671.21	931.62	291.78	877.5	551.32	163.41	684.68	812.45	259.06	738.11	514.06	-97.868	749.81	577.64	-107.02	750.33	670.19	-130.31	650.29	1092.3	293.2	619.14	1100.5	213.92	593.34	1043.6	-26.448	808.73	676.92	-85.038	586.96	1043.4	42.549	744.27	294.07	-77.838	771.95	995.43	173.21	586.55	35.321	-20.908	670.91	68.83	21.843	921.57	1625.9	-11.046	605.94	1229.6	15.158	771.59	24.44	-80.666	856.74	35.755	-14.417	738.62	1619	90.387	768.78	1220.8	-226.83	803.72	29.317	4.0407	863.98	594.51	165.75	729.49	122.24	143.14	659.09	1375.8	170.85	863.64	516.71	37.518	762.22	386.04	-7.059	717.9	205.83	-6.6619	750.79	761.15	-150.44	710.84	496.04	27.169	919.78	1625.6	63.793	899.4	420.62	80.306	739.54	296.08	-6.2373	738.53	1247.3	259.51	792.67	768.57	194.9	830.47	682.2	182.99	856.26	317.47	86.505	655.81	60.123	-63.713	764.09	836.74	242.25	894.77	858.21	-204.49	791	1425.3	178.85	691.71	1069.5	-202.52	761.93	117.77	66.993
